<?xml version="1.0" standalone="no"?>
<!DOCTYPE svg PUBLIC "-//W3C//DTD SVG 20010904//EN"
 "http://www.w3.org/TR/2001/REC-SVG-20010904/DTD/svg10.dtd">
<svg version="1.0" xmlns="http://www.w3.org/2000/svg"
 width="936.000000pt" height="936.000000pt" viewBox="0 0 936.000000 936.000000"
 preserveAspectRatio="xMidYMid meet">
<metadata>
Created by potrace 1.14, written by Peter Selinger 2001-2017
</metadata>
<g transform="translate(0.000000,936.000000) scale(0.100000,-0.100000)"
fill="#000000" stroke="none">
<path d="M3713 8862 c0 -9 -15 -71 -32 -137 -18 -66 -34 -127 -36 -135 -32
-133 -78 -311 -85 -330 -5 -14 -12 -36 -14 -50 -3 -14 -17 -70 -31 -125 -15
-55 -29 -111 -32 -125 -2 -14 -11 -50 -20 -80 -9 -30 -16 -61 -16 -67 0 -7 -4
-13 -9 -13 -5 0 -7 -4 -4 -8 3 -5 -10 -65 -29 -134 -19 -69 -36 -136 -39 -149
-3 -13 -23 -94 -46 -179 -51 -193 -48 -181 -49 -203 -1 -21 -26 -19 -133 12
-38 11 -68 17 -68 14 0 -3 -6 -1 -12 5 -7 5 -30 13 -52 16 -21 4 -41 8 -45 11
-4 2 -18 6 -32 9 -13 3 -33 7 -44 10 -158 41 -297 77 -324 85 -18 6 -36 10
-40 9 -3 -1 -13 1 -21 5 -8 3 -55 15 -105 27 -49 12 -97 25 -105 28 -8 3 -19
6 -25 7 -5 2 -39 10 -75 19 -36 9 -76 19 -90 22 -14 2 -39 9 -56 15 -17 5 -40
11 -50 14 -10 2 -91 22 -179 45 -88 23 -176 46 -195 50 -19 5 -63 16 -98 26
-67 18 -70 17 -77 -12 -2 -11 -22 -89 -45 -174 -22 -85 -42 -164 -45 -175 -2
-11 -11 -45 -20 -75 -9 -30 -18 -66 -21 -80 -3 -14 -21 -86 -41 -160 -39 -149
-37 -140 -48 -193 -4 -20 -11 -40 -16 -43 -5 -3 -7 -9 -4 -13 2 -5 -5 -39 -15
-77 -11 -38 -22 -80 -25 -94 -3 -14 -13 -55 -24 -92 -11 -38 -18 -68 -16 -68
2 0 -2 -18 -10 -40 -8 -22 -14 -42 -15 -45 0 -3 0 -6 -1 -7 -3 -11 -12 -51
-25 -113 -3 -16 -11 -36 -16 -42 -6 -7 -8 -13 -5 -13 3 0 -3 -29 -13 -65 -10
-36 -17 -65 -15 -65 3 0 0 -12 -7 -27 -6 -16 -17 -55 -24 -88 -17 -72 -11 -46
-73 -284 -28 -106 -53 -203 -56 -215 -11 -53 -14 -67 -19 -74 -3 -5 -7 -19
-10 -33 -2 -13 -19 -80 -37 -149 -18 -69 -32 -133 -33 -142 0 -10 -3 -18 -6
-18 -4 0 -7 -6 -7 -12 -1 -17 -8 -45 -34 -143 -11 -44 -22 -87 -24 -95 -2 -8
-11 -42 -20 -74 -8 -33 -17 -69 -20 -80 -2 -12 -4 -21 -5 -21 -1 0 -3 -7 -5
-15 -1 -8 -15 -62 -30 -120 -16 -58 -28 -113 -29 -122 0 -10 -5 -18 -10 -18
-5 0 -7 -2 -4 -5 3 -3 -3 -36 -14 -73 -10 -37 -21 -76 -23 -87 -3 -11 -16 -65
-31 -120 -14 -55 -28 -111 -30 -125 -3 -14 -9 -39 -15 -56 -5 -17 -12 -41 -14
-53 -9 -41 -13 -57 -34 -130 -11 -40 -20 -76 -19 -80 1 -3 -1 -13 -4 -21 -11
-30 -81 -297 -95 -360 -7 -37 -9 -44 -17 -60 -3 -8 -13 -44 -21 -80 -8 -36
-30 -128 -51 -205 -20 -77 -37 -147 -39 -155 -2 -8 -4 -15 -5 -15 -1 0 -3 -7
-5 -15 -12 -55 -18 -81 -40 -160 -2 -8 -26 -103 -54 -210 -28 -107 -53 -205
-57 -217 -3 -13 -2 -23 2 -24 13 -1 30 -5 134 -34 52 -14 107 -28 123 -30 15
-2 31 -6 36 -9 4 -3 21 -8 37 -11 16 -3 63 -14 104 -25 41 -12 86 -23 100 -26
14 -2 39 -9 56 -15 17 -5 40 -11 50 -14 17 -4 154 -39 194 -49 8 -3 35 -9 60
-15 25 -7 53 -14 62 -16 10 -3 27 -7 39 -10 11 -2 29 -7 39 -10 10 -3 29 -8
42 -11 39 -9 53 -12 53 -14 0 -1 7 -3 15 -5 8 -1 44 -11 80 -20 36 -10 74 -19
85 -20 11 -2 32 -8 48 -14 15 -6 27 -9 27 -6 0 2 18 -2 41 -10 22 -8 43 -14
47 -13 4 1 14 -2 22 -5 13 -6 192 -51 243 -62 10 -2 27 -7 37 -10 10 -3 27 -8
37 -10 10 -2 54 -14 98 -26 44 -11 88 -23 99 -25 10 -2 42 -10 70 -18 28 -8
62 -17 76 -20 14 -2 52 -12 85 -21 58 -16 92 -25 173 -44 20 -5 44 -11 52 -14
8 -4 26 -9 40 -11 14 -3 61 -15 105 -27 44 -11 87 -22 95 -24 8 -2 35 -8 60
-15 25 -7 52 -14 60 -16 8 -2 78 -19 155 -39 77 -20 147 -38 155 -40 8 -2 76
-20 150 -40 74 -20 144 -38 155 -40 11 -2 74 -18 140 -35 66 -17 131 -34 145
-37 14 -2 30 -6 35 -8 6 -1 13 -3 17 -4 4 -1 37 -11 73 -21 36 -10 68 -19 70
-19 3 -1 6 -1 8 -2 1 0 9 -2 17 -4 8 -1 87 -22 175 -45 88 -23 167 -43 175
-45 26 -6 104 -25 125 -31 11 -3 30 -7 42 -9 12 -2 28 -7 35 -11 6 -4 21 -9
33 -10 11 -2 56 -12 100 -24 44 -12 87 -23 95 -25 8 -1 35 -8 60 -15 25 -7 46
-12 47 -12 2 0 26 -6 55 -15 29 -8 62 -16 73 -18 34 -7 60 -13 63 -15 1 -2 5
-3 10 -4 20 -4 111 -28 140 -37 19 -6 44 -12 55 -14 12 -2 94 -22 182 -45 227
-60 226 -60 230 -47 6 18 46 179 51 204 2 12 8 33 13 45 5 13 10 28 11 33 1 6
4 15 5 20 2 6 11 44 20 85 9 41 19 82 22 90 3 8 8 24 10 35 2 11 13 53 24 94
12 41 23 86 25 100 3 14 8 35 11 46 4 11 8 25 9 30 1 6 19 73 39 150 45 172
64 244 70 269 2 10 11 42 19 70 8 28 17 62 20 76 3 14 15 61 27 105 11 44 22
88 24 97 5 22 34 134 47 176 8 28 14 33 32 27 11 -3 30 -8 41 -10 33 -8 58
-14 95 -24 19 -5 114 -29 210 -54 96 -25 202 -53 235 -62 71 -19 71 -19 115
-29 19 -4 73 -18 120 -31 47 -13 96 -26 110 -28 14 -3 88 -22 165 -42 77 -20
148 -39 158 -41 36 -8 54 -13 112 -29 33 -9 78 -21 100 -26 22 -5 58 -14 80
-20 22 -6 47 -12 55 -13 8 -2 22 -6 30 -9 26 -9 136 -37 147 -37 10 0 43 106
57 185 2 11 6 27 8 35 10 28 28 95 48 180 12 47 25 96 30 110 6 14 11 37 12
52 1 16 5 28 8 28 3 0 6 8 6 18 0 9 18 80 38 157 21 77 39 149 42 159 7 37 45
181 51 196 3 8 7 22 8 30 1 8 10 44 19 79 10 36 18 73 19 83 1 10 4 18 7 18 3
0 6 9 7 19 1 10 20 90 43 177 23 87 44 167 46 176 2 10 7 28 10 40 3 13 7 30
9 38 2 8 4 15 5 15 1 0 3 7 5 15 1 8 13 53 24 100 12 47 24 94 26 105 3 11 13
50 24 88 11 37 20 70 20 72 1 3 1 6 2 8 1 3 7 30 12 52 3 11 13 49 22 85 9 36
19 72 21 80 2 8 10 39 18 68 8 29 15 55 15 57 1 3 1 6 2 8 0 1 2 9 4 17 1 8
19 78 39 155 20 77 38 147 39 155 1 8 6 21 10 28 5 6 6 12 3 12 -2 0 0 15 5
33 6 17 12 40 14 50 2 10 7 27 10 37 3 10 7 27 9 37 3 10 14 54 26 98 12 44
23 91 26 105 2 14 9 36 14 50 5 14 12 36 14 50 3 14 10 43 16 65 6 22 13 51
16 65 3 14 8 34 11 45 4 11 8 25 9 30 1 6 18 73 38 150 21 77 39 148 41 158 3
9 7 27 10 38 2 12 12 47 21 78 9 30 17 65 19 76 1 11 5 27 8 35 5 13 16 55 22
85 5 19 54 211 69 263 8 28 12 52 9 52 -3 0 0 6 6 14 6 8 11 18 10 22 -2 5 3
29 11 54 7 25 14 56 16 69 1 13 7 35 12 50 10 25 23 78 21 83 0 2 4 16 10 31
6 15 13 40 16 55 3 15 16 70 30 122 23 85 29 109 40 160 2 8 4 15 6 15 1 0 3
9 5 20 1 11 15 63 29 115 15 52 28 104 29 116 2 11 6 25 9 31 3 5 9 25 12 44
9 46 13 64 15 64 1 0 3 7 5 16 1 9 6 26 10 38 3 11 4 21 1 21 -4 0 -50 12
-104 26 -139 37 -244 64 -268 69 -12 3 -90 23 -175 45 -85 23 -163 43 -174 45
-11 2 -22 5 -25 6 -3 1 -10 3 -15 3 -10 1 -62 16 -131 37 -17 5 -39 9 -51 9
-11 0 -23 3 -27 7 -3 4 -13 8 -21 9 -17 2 -307 77 -410 105 -38 11 -79 21 -90
23 -11 2 -40 9 -65 15 -25 7 -52 14 -60 16 -8 2 -15 4 -15 5 0 1 -9 3 -20 5
-11 3 -63 16 -115 30 -52 14 -104 27 -115 29 -11 2 -58 13 -105 26 -47 12 -94
24 -105 27 -39 9 -50 11 -52 13 -2 2 -7 4 -13 5 -5 1 -11 3 -12 5 -2 1 -12 3
-23 5 -40 7 -75 16 -102 26 -16 6 -29 10 -30 10 -2 -1 -4 -1 -5 0 -5 1 -43 10
-63 14 -11 2 -74 18 -140 35 -66 18 -127 34 -135 36 -8 2 -33 8 -55 14 -22 6
-53 13 -70 16 -16 3 -38 10 -48 15 -9 6 -22 7 -27 4 -6 -3 -10 -2 -10 2 0 5
-8 9 -17 9 -10 1 -54 11 -98 23 -44 12 -93 24 -109 27 -16 3 -33 7 -38 10 -4
3 -16 7 -25 9 -10 2 -108 26 -218 55 -234 60 -209 54 -310 80 -44 11 -87 22
-95 24 -8 2 -114 30 -235 61 -318 82 -488 125 -505 129 -8 2 -42 11 -75 20
-33 9 -69 18 -80 20 -11 2 -40 9 -65 16 -57 17 -61 18 -85 23 -11 3 -40 10
-65 17 -25 7 -54 14 -65 17 -38 8 -50 11 -50 13 0 1 -7 3 -15 5 -56 12 -79 18
-162 40 -10 3 -27 7 -39 10 -11 2 -29 7 -39 10 -10 3 -27 8 -37 10 -10 2 -54
13 -98 25 -44 11 -91 23 -105 26 -14 2 -38 9 -55 13 -69 21 -81 21 -82 3z
m1006 -1574 c20 -5 43 -10 51 -12 8 -2 35 -9 60 -16 25 -7 52 -14 60 -16 8 -2
33 -8 55 -14 22 -6 51 -13 65 -16 14 -3 34 -8 45 -11 11 -4 22 -7 25 -8 30 -6
121 -28 140 -35 14 -5 36 -12 50 -14 14 -3 79 -19 145 -37 66 -17 127 -32 135
-34 8 -2 35 -8 60 -15 25 -7 50 -13 55 -14 6 -2 30 -9 55 -16 25 -7 50 -14 55
-15 46 -6 135 -31 135 -38 0 -4 4 -6 9 -3 4 3 23 1 42 -5 19 -5 41 -12 49 -14
67 -16 312 -79 340 -86 19 -6 44 -12 55 -14 29 -6 48 -11 65 -18 13 -4 46 -13
130 -32 8 -2 42 -11 74 -20 33 -8 69 -17 80 -20 12 -2 21 -4 21 -5 0 -1 7 -3
15 -5 8 -2 96 -24 195 -50 99 -25 187 -48 195 -50 42 -9 347 -88 360 -93 8 -3
17 -6 20 -7 6 -1 78 -17 97 -21 6 -1 27 -7 45 -12 18 -6 46 -13 61 -17 22 -4
26 -9 18 -19 -6 -7 -9 -15 -6 -18 3 -2 0 -20 -6 -39 -5 -19 -12 -41 -14 -49
-1 -8 -15 -62 -30 -120 -28 -107 -44 -173 -50 -200 -2 -8 -4 -15 -5 -15 -1 0
-3 -7 -5 -15 -1 -9 -15 -63 -30 -120 -15 -58 -29 -114 -32 -125 -9 -40 -12
-50 -13 -50 -1 0 -3 -9 -5 -20 -4 -19 -16 -67 -69 -265 -14 -53 -27 -107 -30
-120 -2 -14 -9 -37 -15 -52 -6 -16 -8 -28 -6 -28 2 0 0 -12 -6 -27 -6 -16 -13
-39 -15 -53 -3 -14 -7 -33 -10 -42 -3 -9 -6 -25 -9 -35 -2 -11 -10 -43 -19
-71 -8 -29 -12 -52 -9 -52 3 0 0 -7 -7 -15 -7 -9 -10 -18 -7 -21 3 -3 -1 -21
-9 -40 -8 -19 -12 -34 -9 -34 2 0 0 -11 -5 -25 -5 -14 -12 -36 -14 -48 -3 -12
-14 -58 -26 -102 -12 -44 -24 -91 -26 -105 -3 -14 -8 -34 -11 -45 -4 -11 -8
-24 -9 -30 -1 -5 -10 -39 -19 -75 -9 -36 -18 -72 -20 -80 -2 -8 -30 -118 -63
-245 -62 -241 -75 -290 -72 -290 1 0 -3 -12 -9 -28 -6 -15 -13 -38 -15 -50
-10 -46 -15 -67 -52 -207 -20 -80 -42 -151 -47 -157 -5 -8 -16 -9 -26 -5 -9 5
-23 8 -31 7 -8 -1 -19 2 -25 5 -5 4 -114 33 -242 65 -185 47 -230 62 -228 74
7 35 54 218 64 249 5 17 7 32 4 32 -3 0 0 6 6 13 6 8 8 17 4 20 -3 4 -2 7 3 7
5 0 10 11 10 24 1 13 27 122 59 241 31 119 58 226 61 236 2 10 6 28 9 39 3 11
7 28 9 37 3 10 14 52 25 93 11 41 45 174 76 295 31 121 68 261 81 310 13 50
26 99 28 110 6 26 7 30 62 240 20 77 38 147 39 155 1 8 8 35 15 60 6 25 14 56
17 69 2 14 6 28 9 33 3 4 7 16 9 25 2 10 18 74 35 143 46 180 48 170 -35 191
-38 9 -115 29 -170 44 -55 14 -109 28 -120 30 -11 2 -20 4 -20 5 0 1 -7 3 -15
5 -8 1 -69 17 -135 34 -66 17 -129 33 -140 36 -11 2 -36 9 -55 14 -19 5 -82
21 -140 36 -58 14 -112 28 -120 32 -8 3 -25 8 -36 10 -12 2 -55 12 -95 24 -41
11 -85 22 -99 25 -14 3 -55 14 -92 24 -36 10 -69 16 -72 12 -3 -3 -6 -1 -6 4
0 5 -8 10 -17 11 -19 1 -33 4 -98 22 -22 6 -43 11 -47 11 -4 1 -22 6 -40 11
-18 6 -42 12 -53 14 -11 3 -65 17 -120 31 -100 26 -193 50 -230 59 -11 2 -38
9 -60 15 -36 10 -56 15 -130 33 -11 3 -46 12 -77 22 -31 9 -70 18 -85 21 -15
3 -43 9 -61 15 -18 6 -39 12 -45 13 -7 1 -38 8 -69 16 -53 12 -56 14 -47 36 4
13 6 24 3 24 -2 0 0 8 5 18 5 9 11 31 14 47 3 17 12 55 21 86 9 31 18 65 20
75 13 66 60 231 68 241 6 7 15 10 20 7 6 -4 27 -11 47 -16z m-2124 -1344 c99
-25 190 -48 202 -50 12 -2 34 -9 48 -14 14 -5 25 -7 25 -4 0 3 6 2 13 -3 6 -4
21 -9 31 -10 11 -2 21 -5 23 -6 1 -2 -16 -75 -38 -163 -23 -87 -43 -166 -44
-174 -2 -8 -4 -15 -5 -15 -1 0 -3 -7 -5 -15 -12 -45 -27 -107 -30 -120 -2 -8
-4 -16 -4 -17 -1 -2 -2 -6 -3 -10 -2 -10 -67 -262 -73 -285 -8 -28 -15 -56
-20 -79 -2 -12 -11 -46 -20 -75 -8 -29 -16 -64 -17 -78 -1 -14 -7 -26 -12 -26
-5 0 -7 -3 -4 -6 3 -3 -1 -29 -8 -57 -8 -29 -16 -59 -18 -67 -20 -83 -89 -348
-93 -360 -4 -8 -7 -19 -8 -25 -1 -5 -3 -12 -4 -15 -2 -3 -4 -13 -6 -24 -2 -10
-9 -41 -16 -70 -7 -28 -12 -53 -12 -56 1 -3 -3 -13 -9 -24 -6 -10 -11 -28 -13
-40 -1 -11 -8 -41 -15 -66 -7 -25 -14 -52 -15 -60 -2 -8 -11 -40 -19 -72 -8
-31 -18 -69 -21 -85 -8 -38 -13 -58 -15 -58 -1 0 -3 -7 -5 -15 -1 -8 -8 -35
-15 -60 -7 -25 -13 -49 -14 -55 -2 -5 -8 -28 -14 -50 -6 -22 -13 -51 -16 -65
-2 -14 -16 -69 -31 -124 -15 -54 -23 -102 -18 -105 9 -9 125 -41 168 -47 17
-3 37 -8 45 -11 8 -3 24 -8 35 -10 27 -6 37 -9 55 -16 15 -5 126 -34 169 -43
13 -3 76 -19 140 -35 128 -34 127 -34 191 -49 25 -6 52 -13 60 -17 8 -3 22 -7
30 -8 8 -1 44 -10 80 -20 36 -9 72 -19 80 -20 8 -2 85 -22 170 -45 85 -22 164
-42 175 -44 18 -4 203 -52 347 -90 31 -8 67 -18 80 -20 44 -10 173 -44 188
-50 14 -5 39 -10 105 -23 17 -3 33 -10 37 -16 4 -7 8 -9 8 -6 0 3 35 -2 78
-13 42 -10 87 -21 99 -24 12 -2 35 -9 50 -15 16 -6 29 -10 31 -9 1 1 34 -6 73
-16 81 -21 78 -9 40 -149 -12 -44 -24 -89 -25 -100 -2 -11 -6 -27 -9 -35 -4
-8 -16 -53 -28 -100 -30 -119 -31 -124 -31 -137 -2 -17 -18 -16 -92 3 -33 9
-68 17 -76 19 -8 2 -42 10 -75 19 -33 9 -67 18 -75 20 -8 2 -35 9 -60 16 -25
7 -53 14 -62 16 -10 2 -28 7 -40 10 -13 3 -30 7 -38 9 -8 2 -15 4 -15 5 0 1
-7 3 -15 5 -8 1 -44 11 -80 20 -77 20 -98 25 -125 30 -11 2 -47 12 -80 21 -33
9 -67 18 -75 20 -8 2 -42 11 -75 20 -33 9 -68 17 -77 19 -9 2 -61 16 -115 30
-54 15 -109 29 -123 31 -14 3 -38 9 -55 14 -46 14 -427 111 -455 116 -14 3
-41 10 -60 16 -19 7 -41 13 -48 14 -7 1 -58 14 -114 29 -56 15 -110 28 -121
31 -10 2 -27 6 -37 9 -10 3 -27 8 -37 10 -10 2 -81 20 -158 40 -158 41 -167
43 -195 49 -11 3 -24 7 -28 10 -8 5 -25 9 -89 21 -16 3 -41 10 -58 15 -16 5
-95 25 -175 45 -80 20 -162 41 -183 46 -24 7 -35 14 -30 22 4 6 8 20 9 32 2
11 12 56 24 100 20 77 138 534 145 565 2 8 18 69 35 135 18 66 40 154 51 195
11 41 21 83 24 93 3 9 7 25 9 35 2 9 16 64 31 122 15 58 29 112 31 120 2 8 8
33 14 55 6 22 13 54 16 70 3 17 10 38 15 48 5 9 8 17 5 17 -3 0 0 15 6 33 15
48 29 101 43 162 2 11 21 83 41 160 20 77 37 147 39 155 2 8 18 69 35 135 17
66 33 127 35 135 2 8 4 16 4 18 1 1 1 3 1 5 0 1 7 27 16 57 9 30 18 66 20 80
3 14 9 39 15 56 5 17 11 41 14 53 2 12 14 56 25 99 12 42 24 89 26 104 3 14
14 57 25 95 11 37 22 77 23 88 10 64 27 103 44 99 9 -2 98 -24 197 -50z m1665
-428 c8 -3 26 -8 40 -10 14 -3 52 -12 85 -21 33 -9 68 -18 78 -20 10 -2 27 -7
37 -10 10 -3 27 -8 37 -10 10 -2 54 -13 98 -25 44 -12 89 -23 100 -25 11 -1
27 -5 35 -8 13 -5 109 -31 289 -77 19 -5 39 -7 43 -4 4 3 8 0 8 -5 0 -6 12
-11 26 -11 14 0 33 -4 42 -9 9 -5 31 -11 47 -14 17 -3 89 -21 160 -40 129 -33
145 -43 122 -74 -5 -7 -7 -13 -4 -13 3 0 1 -15 -4 -32 -6 -18 -12 -40 -14 -48
-1 -8 -11 -44 -20 -80 -9 -36 -18 -72 -20 -80 -2 -8 -11 -44 -20 -80 -9 -36
-19 -76 -21 -89 -3 -13 -9 -31 -13 -40 -5 -9 -11 -29 -14 -46 -7 -39 -9 -45
-50 -205 -20 -74 -50 -191 -67 -260 -17 -69 -34 -132 -37 -140 -3 -8 -7 -22
-8 -30 -4 -29 -43 -172 -49 -177 -2 -3 -69 12 -148 32 -170 44 -179 46 -198
50 -8 1 -22 5 -30 8 -29 11 -305 80 -322 81 -10 0 -18 4 -18 9 0 5 -6 7 -12 5
-7 -3 -33 2 -58 10 -25 8 -63 18 -85 24 -22 5 -49 12 -60 15 -11 2 -29 6 -40
8 -11 2 -50 13 -87 24 -38 11 -68 17 -68 15 0 -3 -6 -2 -12 3 -7 4 -17 8 -23
9 -5 1 -39 10 -75 19 -36 10 -70 18 -77 18 -11 0 -9 30 4 72 4 11 8 25 9 30 1
6 5 21 8 35 2 14 16 67 30 117 14 51 28 103 30 115 3 13 9 38 15 56 5 18 10
36 11 40 0 4 5 25 11 47 6 22 12 47 14 55 2 8 11 44 20 80 9 36 19 73 21 83 7
30 12 50 38 140 13 48 22 87 19 87 -2 0 -1 6 4 13 4 6 8 15 9 20 1 4 2 8 4 10
1 1 3 11 5 22 2 11 8 35 13 53 6 17 8 32 6 32 -3 0 -2 6 3 13 4 6 8 17 10 22
8 40 13 57 26 101 8 27 15 52 16 56 1 5 4 22 8 38 5 27 9 30 32 26 14 -2 33
-7 41 -10z"/>
</g>
</svg>
